<svg width="215" height="32" viewBox="0 0 215 32" fill="none" xmlns="http://www.w3.org/2000/svg">
<path d="M45.2949 27.9998V5.27979H55.5618C56.6313 5.27979 57.6151 5.50379 58.5135 5.95179C59.4332 6.37846 60.2246 6.96511 60.8877 7.71178C61.5507 8.43711 62.0641 9.25845 62.4277 10.1758C62.8127 11.0931 63.0052 12.0211 63.0052 12.9598C63.0052 13.8985 62.8555 14.7945 62.556 15.6478C62.2566 16.4798 61.8288 17.2371 61.2727 17.9198C60.7165 18.5811 60.0535 19.1251 59.2835 19.5518L64.2886 27.9998H58.4814L54.118 20.6718H50.5567V27.9998H45.2949ZM50.5567 16.0958H55.3693C55.7971 16.0958 56.1714 15.9678 56.4922 15.7118C56.8344 15.4345 57.1125 15.0611 57.3264 14.5918C57.5402 14.1225 57.6472 13.5785 57.6472 12.9598C57.6472 12.3411 57.5189 11.8078 57.2622 11.3598C57.0269 10.8905 56.7275 10.5278 56.3639 10.2718C56.0002 10.0158 55.6152 9.88778 55.2088 9.88778H50.5567V16.0958ZM67.7511 27.9998V5.27979H73.0129V23.3918H84.0497V27.9998H67.7511ZM101.643 9.88778H94.7128V27.9998H89.451V9.88778H82.4888V5.27979H101.643V9.88778Z" fill="white"/>
<path d="M114.885 14.0721V12.4521H115.643C115.852 12.4521 116.012 12.4121 116.125 12.3321C116.237 12.2441 116.325 12.1081 116.389 11.9241L116.497 11.6361L113.213 5.48013H115.391L117.376 9.64413L119.132 5.48013H121.214L117.881 12.8481C117.648 13.3041 117.38 13.6241 117.075 13.8081C116.778 13.9841 116.381 14.0721 115.884 14.0721H114.885ZM130.591 5.48013V14.0001H128.618V10.5081H125.213V14.0001H123.24V5.48013H125.213V8.78013H128.618V5.48013H130.591ZM133.6 14.0001V5.48013H135.573V11.2041L139.255 5.48013H141.096V14.0001H139.123V8.31213L135.489 14.0001H133.6ZM151.173 11.8161C151.173 12.3041 151.041 12.7121 150.776 13.0401C150.519 13.3601 150.171 13.6001 149.729 13.7601C149.288 13.9201 148.803 14.0001 148.274 14.0001H144.111V5.48013H148.863C149.264 5.48013 149.609 5.58813 149.898 5.80413C150.195 6.01213 150.419 6.28413 150.572 6.62013C150.732 6.95613 150.812 7.30413 150.812 7.66413C150.812 8.06413 150.708 8.44813 150.499 8.81613C150.291 9.17613 149.986 9.44813 149.585 9.63213C150.074 9.77613 150.459 10.0321 150.74 10.4001C151.029 10.7681 151.173 11.2401 151.173 11.8161ZM149.164 11.4201C149.164 11.2361 149.128 11.0761 149.056 10.9401C148.983 10.7961 148.887 10.6841 148.767 10.6041C148.655 10.5161 148.518 10.4721 148.358 10.4721H146.084V12.3321H148.274C148.442 12.3321 148.59 12.2921 148.719 12.2121C148.855 12.1321 148.963 12.0241 149.044 11.8881C149.124 11.7521 149.164 11.5961 149.164 11.4201ZM146.084 7.16013V8.92413H148.021C148.165 8.92413 148.298 8.89213 148.418 8.82813C148.546 8.76413 148.651 8.66813 148.731 8.54013C148.811 8.40413 148.851 8.23613 148.851 8.03613C148.851 7.84413 148.815 7.68413 148.743 7.55613C148.679 7.42813 148.59 7.33213 148.478 7.26813C148.366 7.19613 148.237 7.16013 148.093 7.16013H146.084ZM159.662 12.2721V14.0001H153.659V5.48013H159.554V7.20813H155.632V8.86413H159.001V10.4601H155.632V12.2721H159.662ZM162.185 14.0001V5.48013H165.83C166.239 5.48013 166.612 5.56413 166.949 5.73213C167.294 5.89213 167.591 6.11213 167.84 6.39213C168.088 6.66413 168.281 6.97213 168.417 7.31613C168.554 7.66013 168.622 8.01213 168.622 8.37213C168.622 8.86013 168.505 9.32413 168.273 9.76413C168.048 10.2041 167.731 10.5641 167.322 10.8441C166.921 11.1161 166.444 11.2521 165.891 11.2521H164.158V14.0001H162.185ZM164.158 9.53613H165.77C165.923 9.53613 166.063 9.49213 166.191 9.40413C166.32 9.31613 166.424 9.18413 166.504 9.00813C166.584 8.83213 166.625 8.61613 166.625 8.36013C166.625 8.09613 166.576 7.88013 166.48 7.71213C166.392 7.53613 166.276 7.40813 166.131 7.32813C165.995 7.24813 165.85 7.20813 165.698 7.20813H164.158V9.53613ZM170.511 9.66813C170.511 9.14813 170.607 8.64013 170.799 8.14413C170.992 7.64013 171.273 7.18413 171.642 6.77613C172.011 6.36813 172.46 6.04413 172.989 5.80413C173.519 5.55613 174.12 5.43213 174.794 5.43213C175.596 5.43213 176.29 5.60413 176.875 5.94813C177.469 6.29213 177.91 6.74013 178.199 7.29213L176.683 8.34813C176.554 8.04413 176.382 7.80813 176.165 7.64013C175.957 7.47213 175.724 7.35613 175.468 7.29213C175.219 7.22013 174.978 7.18413 174.746 7.18413C174.369 7.18413 174.04 7.26013 173.759 7.41213C173.478 7.55613 173.246 7.75213 173.061 8.00013C172.877 8.24813 172.74 8.52413 172.652 8.82813C172.564 9.13213 172.52 9.43613 172.52 9.74013C172.52 10.0761 172.572 10.4001 172.676 10.7121C172.781 11.0241 172.929 11.3001 173.121 11.5401C173.322 11.7801 173.563 11.9721 173.843 12.1161C174.124 12.2521 174.433 12.3201 174.77 12.3201C175.01 12.3201 175.255 12.2801 175.504 12.2001C175.752 12.1201 175.981 11.9961 176.19 11.8281C176.406 11.6521 176.571 11.4241 176.683 11.1441L178.295 12.0921C178.127 12.5081 177.85 12.8641 177.465 13.1601C177.08 13.4561 176.643 13.6841 176.153 13.8441C175.672 13.9961 175.195 14.0721 174.722 14.0721C174.104 14.0721 173.535 13.9481 173.013 13.7001C172.5 13.4441 172.055 13.1081 171.678 12.6921C171.309 12.2681 171.02 11.7961 170.811 11.2761C170.611 10.7481 170.511 10.2121 170.511 9.66813ZM180.659 14.0001V5.48013H182.632V11.2041L186.314 5.48013H188.155V14.0001H186.182V8.31213L182.548 14.0001H180.659ZM197.679 7.20813H195.08V14.0001H193.107V7.20813H190.496V5.48013H197.679V7.20813ZM205.969 12.2721V14.0001H199.966V5.48013H205.861V7.20813H201.939V8.86413H205.308V10.4601H201.939V12.2721H205.969ZM215.001 7.20813H212.402V14.0001H210.429V7.20813H207.818V5.48013H215.001V7.20813ZM114.115 28.0001V19.4801H117.761C118.17 19.4801 118.543 19.5641 118.88 19.7321C119.225 19.8921 119.521 20.1121 119.77 20.3921C120.019 20.6641 120.211 20.9721 120.348 21.3161C120.484 21.6601 120.552 22.0121 120.552 22.3721C120.552 22.8601 120.436 23.3241 120.203 23.7641C119.979 24.2041 119.662 24.5641 119.253 24.8441C118.852 25.1161 118.374 25.2521 117.821 25.2521H116.088V28.0001H114.115ZM116.088 23.5361H117.701C117.853 23.5361 117.993 23.4921 118.122 23.4041C118.25 23.3161 118.354 23.1841 118.435 23.0081C118.515 22.8321 118.555 22.6161 118.555 22.3601C118.555 22.0961 118.507 21.8801 118.41 21.7121C118.322 21.5361 118.206 21.4081 118.062 21.3281C117.925 21.2481 117.781 21.2081 117.628 21.2081H116.088V23.5361ZM126.677 28.0721C126.035 28.0721 125.454 27.9521 124.933 27.7121C124.419 27.4641 123.974 27.1361 123.597 26.7281C123.228 26.3121 122.943 25.8481 122.743 25.3361C122.542 24.8161 122.442 24.2801 122.442 23.7281C122.442 23.1601 122.546 22.6201 122.755 22.1081C122.971 21.5961 123.268 21.1401 123.645 20.7401C124.03 20.3321 124.483 20.0121 125.005 19.7801C125.526 19.5481 126.096 19.4321 126.713 19.4321C127.347 19.4321 127.92 19.5561 128.434 19.8041C128.955 20.0441 129.4 20.3721 129.769 20.7881C130.146 21.2041 130.435 21.6721 130.635 22.1921C130.836 22.7041 130.936 23.2281 130.936 23.7641C130.936 24.3321 130.832 24.8721 130.623 25.3841C130.415 25.8961 130.118 26.3561 129.733 26.7641C129.348 27.1641 128.895 27.4841 128.374 27.7241C127.86 27.9561 127.295 28.0721 126.677 28.0721ZM124.451 23.7521C124.451 24.0801 124.499 24.4001 124.596 24.7121C124.692 25.0161 124.832 25.2881 125.017 25.5281C125.209 25.7681 125.446 25.9601 125.727 26.1041C126.007 26.2481 126.328 26.3201 126.689 26.3201C127.066 26.3201 127.395 26.2481 127.676 26.1041C127.956 25.9521 128.189 25.7521 128.374 25.5041C128.558 25.2561 128.694 24.9801 128.783 24.6761C128.879 24.3641 128.927 24.0481 128.927 23.7281C128.927 23.4001 128.879 23.0841 128.783 22.7801C128.686 22.4761 128.542 22.2041 128.349 21.9641C128.157 21.7161 127.92 21.5241 127.64 21.3881C127.359 21.2521 127.042 21.1841 126.689 21.1841C126.312 21.1841 125.983 21.2561 125.703 21.4001C125.43 21.5441 125.197 21.7401 125.005 21.9881C124.82 22.2281 124.68 22.5041 124.584 22.8161C124.495 23.1201 124.451 23.4321 124.451 23.7521ZM132.906 23.6681C132.906 23.1481 133.003 22.6401 133.195 22.1441C133.388 21.6401 133.668 21.1841 134.037 20.7761C134.406 20.3681 134.855 20.0441 135.385 19.8041C135.914 19.5561 136.516 19.4321 137.19 19.4321C137.992 19.4321 138.685 19.6041 139.271 19.9481C139.865 20.2921 140.306 20.7401 140.594 21.2921L139.079 22.3481C138.95 22.0441 138.778 21.8081 138.561 21.6401C138.353 21.4721 138.12 21.3561 137.863 21.2921C137.615 21.2201 137.374 21.1841 137.141 21.1841C136.764 21.1841 136.436 21.2601 136.155 21.4121C135.874 21.5561 135.642 21.7521 135.457 22.0001C135.273 22.2481 135.136 22.5241 135.048 22.8281C134.96 23.1321 134.916 23.4361 134.916 23.7401C134.916 24.0761 134.968 24.4001 135.072 24.7121C135.176 25.0241 135.325 25.3001 135.517 25.5401C135.718 25.7801 135.958 25.9721 136.239 26.1161C136.52 26.2521 136.829 26.3201 137.166 26.3201C137.406 26.3201 137.651 26.2801 137.899 26.2001C138.148 26.1201 138.377 25.9961 138.585 25.8281C138.802 25.6521 138.966 25.4241 139.079 25.1441L140.691 26.0921C140.522 26.5081 140.246 26.8641 139.861 27.1601C139.476 27.4561 139.038 27.6841 138.549 27.8441C138.068 27.9961 137.591 28.0721 137.117 28.0721C136.5 28.0721 135.93 27.9481 135.409 27.7001C134.896 27.4441 134.45 27.1081 134.073 26.6921C133.704 26.2681 133.416 25.7961 133.207 25.2761C133.007 24.7481 132.906 24.2121 132.906 23.6681ZM146.122 28.0721C145.544 28.0721 145.031 27.9921 144.582 27.8321C144.133 27.6641 143.744 27.4321 143.415 27.1361C143.086 26.8321 142.801 26.4881 142.561 26.1041L144.197 25.1441C144.325 25.3841 144.482 25.5921 144.666 25.7681C144.851 25.9441 145.067 26.0801 145.316 26.1761C145.564 26.2721 145.837 26.3201 146.134 26.3201C146.503 26.3201 146.824 26.2561 147.096 26.1281C147.377 26.0001 147.614 25.8201 147.806 25.5881C147.999 25.3561 148.143 25.0921 148.239 24.7961C148.336 24.4921 148.388 24.1681 148.396 23.8241L149.178 24.3521H145.448V22.9481H149.142L148.384 23.4521C148.368 23.1401 148.308 22.8481 148.203 22.5761C148.099 22.3041 147.951 22.0641 147.758 21.8561C147.574 21.6481 147.345 21.4841 147.072 21.3641C146.8 21.2441 146.487 21.1841 146.134 21.1841C145.837 21.1841 145.564 21.2321 145.316 21.3281C145.067 21.4241 144.851 21.5601 144.666 21.7361C144.482 21.9121 144.329 22.1241 144.209 22.3721L142.657 21.2801C143.018 20.7361 143.475 20.2921 144.028 19.9481C144.582 19.6041 145.292 19.4321 146.158 19.4321C146.832 19.4321 147.433 19.5521 147.963 19.7921C148.492 20.0321 148.937 20.3561 149.298 20.7641C149.659 21.1641 149.936 21.6241 150.128 22.1441C150.321 22.6561 150.417 23.1961 150.417 23.7641C150.417 24.3401 150.317 24.8881 150.116 25.4081C149.916 25.9281 149.627 26.3881 149.25 26.7881C148.873 27.1881 148.42 27.5041 147.891 27.7361C147.369 27.9601 146.78 28.0721 146.122 28.0721ZM158.201 28.0001V21.2081H156.084L156.036 22.5161C155.996 23.6201 155.899 24.5321 155.747 25.2521C155.603 25.9721 155.386 26.5361 155.097 26.9441C154.809 27.3521 154.44 27.6441 153.99 27.8201C153.549 27.9881 153.02 28.0721 152.402 28.0721V26.3681C152.683 26.3681 152.928 26.3121 153.136 26.2001C153.345 26.0801 153.517 25.8641 153.654 25.5521C153.798 25.2401 153.91 24.7961 153.99 24.2201C154.079 23.6361 154.139 22.8761 154.171 21.9401L154.255 19.4801H160.175V28.0001H158.201ZM169.645 21.2081H167.047V28.0001H165.073V21.2081H162.463V19.4801H169.645V21.2081ZM175.51 28.0721C174.868 28.0721 174.287 27.9521 173.765 27.7121C173.252 27.4641 172.807 27.1361 172.43 26.7281C172.061 26.3121 171.776 25.8481 171.575 25.3361C171.375 24.8161 171.275 24.2801 171.275 23.7281C171.275 23.1601 171.379 22.6201 171.587 22.1081C171.804 21.5961 172.101 21.1401 172.478 20.7401C172.863 20.3321 173.316 20.0121 173.837 19.7801C174.359 19.5481 174.928 19.4321 175.546 19.4321C176.179 19.4321 176.753 19.5561 177.266 19.8041C177.788 20.0441 178.233 20.3721 178.602 20.7881C178.979 21.2041 179.268 21.6721 179.468 22.1921C179.669 22.7041 179.769 23.2281 179.769 23.7641C179.769 24.3321 179.665 24.8721 179.456 25.3841C179.247 25.8961 178.951 26.3561 178.566 26.7641C178.181 27.1641 177.728 27.4841 177.206 27.7241C176.693 27.9561 176.127 28.0721 175.51 28.0721ZM173.284 23.7521C173.284 24.0801 173.332 24.4001 173.428 24.7121C173.525 25.0161 173.665 25.2881 173.849 25.5281C174.042 25.7681 174.279 25.9601 174.559 26.1041C174.84 26.2481 175.161 26.3201 175.522 26.3201C175.899 26.3201 176.228 26.2481 176.508 26.1041C176.789 25.9521 177.022 25.7521 177.206 25.5041C177.391 25.2561 177.527 24.9801 177.615 24.6761C177.711 24.3641 177.76 24.0481 177.76 23.7281C177.76 23.4001 177.711 23.0841 177.615 22.7801C177.519 22.4761 177.375 22.2041 177.182 21.9641C176.99 21.7161 176.753 21.5241 176.472 21.3881C176.192 21.2521 175.875 21.1841 175.522 21.1841C175.145 21.1841 174.816 21.2561 174.535 21.4001C174.262 21.5441 174.03 21.7401 173.837 21.9881C173.653 22.2281 173.513 22.5041 173.416 22.8161C173.328 23.1201 173.284 23.4321 173.284 23.7521ZM182.232 28.0001V19.4801H185.878C186.287 19.4801 186.66 19.5641 186.997 19.7321C187.342 19.8921 187.638 20.1121 187.887 20.3921C188.136 20.6641 188.328 20.9721 188.465 21.3161C188.601 21.6601 188.669 22.0121 188.669 22.3721C188.669 22.8601 188.553 23.3241 188.32 23.7641C188.096 24.2041 187.779 24.5641 187.37 24.8441C186.969 25.1161 186.491 25.2521 185.938 25.2521H184.205V28.0001H182.232ZM184.205 23.5361H185.818C185.97 23.5361 186.11 23.4921 186.239 23.4041C186.367 23.3161 186.471 23.1841 186.552 23.0081C186.632 22.8321 186.672 22.6161 186.672 22.3601C186.672 22.0961 186.624 21.8801 186.528 21.7121C186.439 21.5361 186.323 21.4081 186.179 21.3281C186.042 21.2481 185.898 21.2081 185.745 21.2081H184.205V23.5361ZM191.088 28.0001V19.4801H196.479V21.2081H193.062V28.0001H191.088Z" fill="white"/>
<mask id="mask0_28_2982" style="mask-type:alpha" maskUnits="userSpaceOnUse" x="0" y="0" width="33" height="32">
<path d="M16.0419 32C24.9016 32 32.0839 24.8366 32.0839 16C32.0839 7.16344 24.9016 0 16.0419 0C7.18222 0 0 7.16344 0 16C0 24.8366 7.18222 32 16.0419 32Z" fill="black"/>
</mask>
<g mask="url(#mask0_28_2982)">
<path d="M32.084 4H29.0762V14H32.084V4Z" fill="white"/>
<path d="M27.0723 0H24.0645V14H27.0723V0Z" fill="white"/>
<path d="M22.0586 0H19.0508V14H22.0586V0Z" fill="white"/>
<path d="M-4.00977 11V14L13.0348 14V11H-4.00977Z" fill="white"/>
<path d="M-4.00977 6V9L13.0348 9V6L-4.00977 6Z" fill="white"/>
<path d="M-4.00977 0V4L13.0348 4V0L-4.00977 0Z" fill="white"/>
</g>
<path d="M30.5799 16C30.5799 17.9042 30.2038 19.7897 29.4733 21.5489C28.7427 23.3081 27.6718 24.9066 26.3218 26.253C24.9719 27.5995 23.3692 28.6676 21.6054 29.3963C19.8415 30.1249 17.9511 30.5 16.0419 30.5C14.1327 30.5 12.2423 30.1249 10.4785 29.3963C8.71463 28.6676 7.11197 27.5995 5.76199 26.253C4.41201 24.9066 3.34115 23.3081 2.61055 21.5489C1.87994 19.7897 1.50391 17.9042 1.50391 16" fill="black"/>
<path d="M30.5799 16C30.5799 17.9042 30.2038 19.7897 29.4733 21.5489C28.7427 23.3081 27.6718 24.9066 26.3218 26.253C24.9719 27.5995 23.3692 28.6676 21.6054 29.3963C19.8415 30.1249 17.9511 30.5 16.0419 30.5C14.1327 30.5 12.2423 30.1249 10.4785 29.3963C8.71463 28.6676 7.11197 27.5995 5.76199 26.253C4.41201 24.9066 3.34115 23.3081 2.61055 21.5489C1.87994 19.7897 1.50391 17.9042 1.50391 16" stroke="white" stroke-width="3"/>
<path d="M25.5674 16C25.5674 17.2476 25.321 18.4829 24.8424 19.6355C24.3636 20.7881 23.6621 21.8354 22.7776 22.7175C21.8932 23.5997 20.8431 24.2994 19.6875 24.7769C18.5319 25.2543 17.2933 25.5 16.0425 25.5C14.7916 25.5 13.5531 25.2543 12.3974 24.7769C11.2418 24.2994 10.1918 23.5997 9.30736 22.7175C8.42289 21.8354 7.72128 20.7881 7.24261 19.6355C6.76394 18.4829 6.51758 17.2476 6.51758 16" fill="black"/>
<path d="M25.5674 16C25.5674 17.2476 25.321 18.4829 24.8424 19.6355C24.3636 20.7881 23.6621 21.8354 22.7776 22.7175C21.8932 23.5997 20.8431 24.2994 19.6875 24.7769C18.5319 25.2543 17.2933 25.5 16.0425 25.5C14.7916 25.5 13.5531 25.2543 12.3974 24.7769C11.2418 24.2994 10.1918 23.5997 9.30736 22.7175C8.42289 21.8354 7.72128 20.7881 7.24261 19.6355C6.76394 18.4829 6.51758 17.2476 6.51758 16" stroke="white" stroke-width="3"/>
<path d="M20.5529 16C20.5529 16.5909 20.4362 17.1761 20.2095 17.7221C19.9827 18.268 19.6503 18.7641 19.2314 19.182C18.8124 19.5998 18.315 19.9313 17.7677 20.1575C17.2203 20.3836 16.6335 20.5 16.0411 20.5C15.4486 20.5 14.8619 20.3836 14.3145 20.1575C13.7671 19.9313 13.2697 19.5998 12.8508 19.182C12.4319 18.7641 12.0995 18.268 11.8727 17.7221C11.646 17.1761 11.5293 16.5909 11.5293 16" fill="black"/>
<path d="M20.5529 16C20.5529 16.5909 20.4362 17.1761 20.2095 17.7221C19.9827 18.268 19.6503 18.7641 19.2314 19.182C18.8124 19.5998 18.315 19.9313 17.7677 20.1575C17.2203 20.3836 16.6335 20.5 16.0411 20.5C15.4486 20.5 14.8619 20.3836 14.3145 20.1575C13.7671 19.9313 13.2697 19.5998 12.8508 19.182C12.4319 18.7641 12.0995 18.268 11.8727 17.7221C11.646 17.1761 11.5293 16.5909 11.5293 16" stroke="white" stroke-width="3"/>
</svg>
