<svg width="33" height="31" viewBox="0 0 33 31" fill="none" xmlns="http://www.w3.org/2000/svg">
<path d="M0 15.5C0 6.93959 6.93959 0 15.5 0H17.5C26.0604 0 33 6.93959 33 15.5V15.5C33 24.0604 26.0604 31 17.5 31H15.5C6.93959 31 0 24.0604 0 15.5V15.5Z" fill="white" fill-opacity="0.1"/>
<path d="M19.2113 21.7043C20.2319 22.4058 21.6249 21.7937 21.819 20.5587L23.5853 9.32051C23.7252 8.43089 22.84 7.73638 22.0266 8.09747L7.3364 14.6185C6.85879 14.8305 6.89912 15.531 7.39781 15.6851L10.381 16.6073C11.0121 16.8024 11.6958 16.706 12.2506 16.3437L18.8293 12.0478C18.9427 11.9738 19.0648 12.1283 18.9691 12.2246L14.9209 16.2914C14.1669 17.0489 14.2828 18.3165 15.1613 18.9204L19.2113 21.7043Z" fill="white"/>
</svg>
