<svg width="32" height="32" viewBox="0 0 32 32" fill="none" xmlns="http://www.w3.org/2000/svg">
<path d="M0 16C0 7.16344 7.16344 0 16 0C24.8366 0 32 7.16344 32 16C32 24.8366 24.8366 32 16 32C7.16344 32 0 24.8366 0 16Z" fill="white" fill-opacity="0.1"/>
<path d="M21.5446 18.1749C21.2223 17.6149 21.3144 17.3657 21.5446 16.8651C21.5487 16.8594 24.2096 11.8011 24.4837 10.0857L24.4854 10.0846C24.6217 9.45943 24.4855 9 23.8266 9H21.6467C21.0918 9 20.8359 9.39429 20.6988 9.83543C20.6988 9.83543 19.5889 13.4903 18.0189 15.8594C17.512 16.544 17.2778 16.7634 17.0011 16.7634C16.8649 16.7634 16.6531 16.544 16.6531 15.9189V10.0846C16.6531 9.33486 16.4977 9 16.0383 9H12.6106C12.2625 9 12.0556 9.34971 12.0556 9.67543C12.0556 10.3863 12.8407 10.5497 12.9221 12.5497V16.8891C12.9221 17.84 12.7967 18.0149 12.5184 18.0149C11.7773 18.0149 9.97873 14.3451 8.91287 10.1451C8.6977 9.33029 8.48752 9.00114 7.92842 9.00114H5.74768C5.12544 9.00114 5 9.39543 5 9.83657C5 10.616 5.74104 14.4914 8.44598 19.6115C10.2487 23.1064 12.7875 25 15.097 25C16.4853 25 16.6548 24.5794 16.6548 23.8561C16.6548 20.5166 16.5293 20.2012 17.2247 20.2012C17.547 20.2012 18.1018 20.4206 19.3978 22.1063C20.8791 24.1052 21.1226 25 21.9517 25H24.1315C24.753 25 25.0678 24.5794 24.8867 23.7497C24.4722 22.0046 21.6709 18.4149 21.5446 18.1749Z" fill="white"/>
</svg>
