<svg width="32" height="32" viewBox="0 0 32 32" fill="none" xmlns="http://www.w3.org/2000/svg">
<path d="M0 16C0 7.16344 7.16344 0 16 0C24.8366 0 32 7.16344 32 16C32 24.8366 24.8366 32 16 32C7.16344 32 0 24.8366 0 16Z" fill="white" fill-opacity="0.1"/>
<path d="M22.6386 9H10.3614C7.95268 9 6 10.9527 6 13.3614V19.4987C6 21.9075 7.95268 23.8601 10.3614 23.8601H22.6386C25.0473 23.8601 27 21.9075 27 19.4987V13.3614C27 10.9527 25.0473 9 22.6386 9ZM19.689 16.7287L13.9465 19.4675C13.7935 19.5404 13.6168 19.4289 13.6168 19.2594V13.6106C13.6168 13.4387 13.7982 13.3273 13.9515 13.405L19.6939 16.315C19.8647 16.4015 19.8617 16.6463 19.689 16.7287Z" fill="white"/>
</svg>
